name C:\Users\u0101727\Documents\MyRepositories\upper-imu-dc\Results\main_tracking\Case_31\FLX01_angularVelocities_groundFrame.mot
datacolumns 4
datarows 82
range 3.51000000 4.32000000
endheader 
time	radius_imu_x	radius_imu_y	radius_imu_z	
          3.51000000	         -0.02893784	         -0.24914309	         -0.15447164	
          3.52000000	         -0.01033904	         -0.18689663	         -0.14286879	
          3.53000000	          0.00780325	         -0.12370073	         -0.12950543	
          3.54000000	          0.02491967	         -0.06248247	         -0.11521324	
          3.55000000	          0.04045587	         -0.00646043	         -0.10096800	
          3.56000000	          0.05401775	          0.04198246	         -0.08762721	
          3.57000000	          0.06548815	          0.08215464	         -0.07569993	
          3.58000000	          0.07502351	          0.11513911	         -0.06524696	
          3.59000000	          0.08294937	          0.14319230	         -0.05593396	
          3.60000000	          0.08964260	          0.16891065	         -0.04719376	
          3.61000000	          0.09544874	          0.19449942	         -0.03843152	
          3.62000000	          0.10059585	          0.22102551	         -0.02925395	
          3.63000000	          0.10506677	          0.24759165	         -0.01968615	
          3.64000000	          0.10848827	          0.27081889	         -0.01029387	
          3.65000000	          0.11013318	          0.28510840	         -0.00214358	
          3.66000000	          0.10905770	          0.28369770	          0.00338459	
          3.67000000	          0.10433212	          0.26019206	          0.00486541	
          3.68000000	          0.09533320	          0.21034258	          0.00113249	
          3.69000000	          0.08208716	          0.13398414	         -0.00839750	
          3.70000000	          0.06558952	          0.03672774	         -0.02343697	
          3.71000000	          0.04788077	         -0.06978782	         -0.04274894	
          3.72000000	          0.03166730	         -0.17020623	         -0.06444825	
          3.73000000	          0.01958700	         -0.24970412	         -0.08659458	
          3.74000000	          0.01346750	         -0.29818488	         -0.10778368	
          3.75000000	          0.01385571	         -0.31283628	         -0.12751145	
          3.76000000	          0.01991815	         -0.29848105	         -0.14623584	
          3.77000000	          0.02969272	         -0.26588632	         -0.16516361	
          3.78000000	          0.04059653	         -0.22869421	         -0.18584996	
          3.79000000	          0.05005069	         -0.19981976	         -0.20971682	
          3.80000000	          0.05608036	         -0.18820720	         -0.23761040	
          3.81000000	          0.05774928	         -0.19676072	         -0.26951378	
          3.82000000	          0.05531450	         -0.22199741	         -0.30450394	
          3.83000000	          0.05006615	         -0.25543611	         -0.34096545	
          3.84000000	          0.04391498	         -0.28615974	         -0.37697651	
          3.85000000	          0.03886009	         -0.30371683	         -0.41074457	
          3.86000000	          0.03648657	         -0.30057971	         -0.44097965	
          3.87000000	          0.03761598	         -0.27361659	         -0.46712508	
          3.88000000	          0.04217659	         -0.22436576	         -0.48940652	
          3.89000000	          0.04929362	         -0.15825104	         -0.50871163	
          3.90000000	          0.05754536	         -0.08312030	         -0.52635711	
          3.91000000	          0.06530537	         -0.00753501	         -0.54381023	
          3.92000000	          0.07108765	          0.06084839	         -0.56241406	
          3.93000000	          0.07382862	          0.11657588	         -0.58314971	
          3.94000000	          0.07307003	          0.15722354	         -0.60646978	
          3.95000000	          0.06902780	          0.18363295	         -0.63224651	
          3.96000000	          0.06253754	          0.19946351	         -0.65986861	
          3.97000000	          0.05488126	          0.21011577	         -0.68847647	
          3.98000000	          0.04753375	          0.22131740	         -0.71726442	
          3.99000000	          0.04189744	          0.23780242	         -0.74574945	
          4.00000000	          0.03909090	          0.26243788	         -0.77392427	
          4.01000000	          0.03982252	          0.29593414	         -0.80226048	
          4.02000000	          0.04434451	          0.33705392	         -0.83157863	
          4.03000000	          0.05246140	          0.38310445	         -0.86284284	
          4.04000000	          0.06357404	          0.43050675	         -0.89694845	
          4.05000000	          0.07677285	          0.47538547	         -0.93453797	
          4.06000000	          0.09102133	          0.51427470	         -0.97583306	
          4.07000000	          0.10545351	          0.54500188	         -1.02046515	
          4.08000000	          0.11975018	          0.56760210	         -1.06733291	
          4.09000000	          0.13449527	          0.58492138	         -1.11456168	
          4.10000000	          0.15138800	          0.60259852	         -1.15962302	
          4.11000000	          0.17321304	          0.62829012	         -1.19963752	
          4.12000000	          0.20354091	          0.67030797	         -1.23179684	
          4.13000000	          0.24618258	          0.73600680	         -1.25378206	
          4.14000000	          0.30441113	          0.83006776	         -1.26413915	
          4.15000000	          0.38000212	          0.95286320	         -1.26257779	
          4.16000000	          0.47223643	          1.09920211	         -1.25015340	
          4.17000000	          0.57709048	          1.25778275	         -1.22930768	
          4.18000000	          0.68688777	          1.41169196	         -1.20372461	
          4.19000000	          0.79064256	          1.54011602	         -1.17797952	
          4.20000000	          0.87518191	          1.62112215	         -1.15700276	
          4.21000000	          0.92699151	          1.63516380	         -1.14540667	
          4.22000000	          0.93470434	          1.56900995	         -1.14671741	
          4.23000000	          0.89209232	          1.41976313	         -1.16257365	
          4.24000000	          0.80097971	          1.19799652	         -1.19207374	
          4.25000000	          0.67270711	          0.92805175	         -1.23163420	
          4.26000000	          0.52673885	          0.64393981	         -1.27566151	
          4.27000000	          0.38659703	          0.38196398	         -1.31785012	
          4.28000000	          0.27505507	          0.17344994	         -1.35248282	
          4.29000000	          0.21047551	          0.04021519	         -1.37523899	
          4.30000000	          0.20481466	         -0.00696970	         -1.38347798	
          4.31000000	          0.26277017	          0.03186708	         -1.37626282	
          4.32000000	          0.38133857	          0.14667736	         -1.35440206	
